<svg xmlns="http://www.w3.org/2000/svg" xmlns:xlink="http://www.w3.org/1999/xlink" preserveAspectRatio="xMidYMid" width="50" height="50" viewBox="0 0 50 50" fill="#ed1c24">
  <path d="M42.567,19.048 C42.343,19.394 42.054,19.607 41.698,19.686 C41.343,19.765 40.961,19.676 40.552,19.419 C40.163,19.182 39.795,18.977 39.450,18.804 C39.104,18.631 38.751,18.490 38.391,18.381 C38.031,18.273 37.651,18.194 37.252,18.144 C36.853,18.095 36.405,18.070 35.909,18.070 C34.984,18.070 34.152,18.236 33.412,18.567 C32.673,18.898 32.042,19.365 31.522,19.967 C31.001,20.570 30.599,21.293 30.317,22.138 C30.035,22.983 29.894,23.924 29.894,24.961 C29.894,26.108 30.049,27.125 30.361,28.014 C30.672,28.903 31.113,29.654 31.682,30.267 C32.252,30.880 32.933,31.346 33.726,31.667 C34.520,31.988 35.398,32.149 36.362,32.149 C36.955,32.149 37.493,32.090 37.975,31.971 C38.457,31.852 38.926,31.694 39.384,31.497 L39.425,28.257 L37.381,28.257 C36.726,28.257 36.213,27.788 36.213,27.367 L36.213,24.700 L43.806,24.700 L43.806,33.592 L43.852,33.690 C42.762,34.500 41.601,35.088 40.370,35.454 C39.138,35.819 37.851,36.002 36.508,36.002 C34.756,36.002 33.162,35.723 31.726,35.165 C30.290,34.607 29.061,33.836 28.039,32.853 C27.017,31.870 26.229,30.704 25.674,29.355 C25.119,28.007 24.842,26.542 24.842,24.961 C24.842,23.351 25.104,21.871 25.630,20.523 C26.156,19.174 26.908,18.011 27.886,17.033 C28.864,16.055 30.047,15.294 31.434,14.751 C32.821,14.207 34.208,14.030 35.921,14.030 C36.807,14.030 37.802,14.010 38.581,14.158 C39.360,14.306 40.078,14.509 40.735,14.766 C41.392,15.022 41.993,15.329 42.538,15.684 C43.083,16.040 43.569,16.425 43.998,16.840 L42.567,19.048 ZM22.488,30.924 L21.028,30.924 L21.028,35.666 L17.232,35.666 L17.232,30.924 L8.764,30.924 C8.481,30.924 8.126,30.711 7.898,30.534 C7.669,30.356 7.525,30.133 7.467,29.867 L7.000,27.599 L16.940,14.030 L21.320,14.030 L21.320,27.367 L23.364,27.367 L23.364,30.035 C23.364,30.218 23.022,30.924 22.488,30.924 ZM11.745,27.377 L17.220,27.377 L17.232,19.661 L11.745,27.377 Z" class="cls-1"/>
</svg>
