<svg xmlns="http://www.w3.org/2000/svg" xmlns:xlink="http://www.w3.org/1999/xlink" preserveAspectRatio="xMidYMid" width="50" height="50" viewBox="0 0 50 50" fill="#ed1c24">
  	<path d="M36.000,43.000 L14.000,43.000 C11.791,43.000 10.000,41.209 10.000,39.000 L10.000,16.000 C10.000,13.791 11.791,12.000 14.000,12.000 L18.000,12.000 L18.000,10.000 C18.000,8.895 18.896,8.000 20.000,8.000 L30.000,8.000 C31.105,8.000 32.000,8.895 32.000,10.000 L32.000,12.000 L36.000,12.000 C38.209,12.000 40.000,13.791 40.000,16.000 L40.000,39.000 C40.000,41.209 38.209,43.000 36.000,43.000 ZM36.000,17.000 C36.000,16.448 35.552,16.000 35.000,16.000 L15.000,16.000 C14.448,16.000 14.000,16.448 14.000,17.000 L14.000,38.000 C14.000,38.552 14.448,39.000 15.000,39.000 L35.000,39.000 C35.552,39.000 36.000,38.552 36.000,38.000 L36.000,17.000 ZM33.000,37.000 L17.000,37.000 C16.448,37.000 16.000,36.552 16.000,36.000 L16.000,33.000 C16.000,32.448 16.448,32.000 17.000,32.000 L33.000,32.000 C33.552,32.000 34.000,32.448 34.000,33.000 L34.000,36.000 C34.000,36.552 33.552,37.000 33.000,37.000 ZM33.000,30.000 L17.000,30.000 C16.448,30.000 16.000,29.552 16.000,29.000 L16.000,26.000 C16.000,25.448 16.448,25.000 17.000,25.000 L33.000,25.000 C33.552,25.000 34.000,25.448 34.000,26.000 L34.000,29.000 C34.000,29.552 33.552,30.000 33.000,30.000 ZM33.000,23.000 L17.000,23.000 C16.448,23.000 16.000,22.552 16.000,22.000 L16.000,19.000 C16.000,18.448 16.448,18.000 17.000,18.000 L33.000,18.000 C33.552,18.000 34.000,18.448 34.000,19.000 L34.000,22.000 C34.000,22.552 33.552,23.000 33.000,23.000 Z" class="cls-1"/>
</svg>
