<svg xmlns="http://www.w3.org/2000/svg" xmlns:xlink="http://www.w3.org/1999/xlink" preserveAspectRatio="xMidYMid" width="50" height="50" viewBox="0 0 50 50" fill="#ed1c24">
  	<path d="M39.000,40.000 L11.000,40.000 C8.791,40.000 7.000,38.209 7.000,36.000 L7.000,18.000 C7.000,15.791 8.791,14.000 11.000,14.000 C11.000,14.000 12.917,14.000 15.000,14.000 C17.083,14.000 18.791,10.000 21.000,10.000 L29.000,10.000 C31.209,10.000 32.583,14.000 35.000,14.000 C37.417,14.000 39.000,14.000 39.000,14.000 C41.209,14.000 43.000,15.791 43.000,18.000 L43.000,36.000 C43.000,38.209 41.209,40.000 39.000,40.000 ZM25.000,18.000 C20.029,18.000 16.000,22.029 16.000,27.000 C16.000,31.971 20.029,36.000 25.000,36.000 C29.971,36.000 34.000,31.971 34.000,27.000 C34.000,22.029 29.971,18.000 25.000,18.000 Z" class="cls-1"/>
</svg>
