<svg xmlns="http://www.w3.org/2000/svg" xmlns:xlink="http://www.w3.org/1999/xlink" preserveAspectRatio="xMidYMid" width="26" height="24" viewBox="0 0 26 26">
  	<path d="M18.201,7.719 L15.070,3.993 L19.582,3.993 L18.201,7.719 ZM17.349,10.016 L10.644,10.016 L10.465,9.535 L13.861,5.025 L17.565,9.433 L17.349,10.016 ZM8.407,3.993 L12.641,3.993 L9.805,7.759 L8.407,3.993 ZM8.105,10.016 L3.237,10.016 L6.107,4.602 C6.201,4.426 6.373,4.270 6.568,4.158 L8.527,9.455 L8.105,10.016 ZM13.036,21.647 L12.876,22.080 L3.733,12.023 L9.477,12.023 L13.036,21.647 ZM16.605,12.023 L13.999,19.052 L11.388,12.023 L16.605,12.023 ZM18.517,12.023 L24.337,12.023 L15.083,21.972 L14.962,21.647 L18.517,12.023 ZM19.764,10.016 L19.993,9.851 L19.525,9.294 L21.420,4.160 C21.614,4.272 21.783,4.428 21.874,4.604 L24.696,10.016 L19.764,10.016 Z" class="cls-1"/>
</svg>
