<svg xmlns="http://www.w3.org/2000/svg" xmlns:xlink="http://www.w3.org/1999/xlink" preserveAspectRatio="xMidYMid" width="50" height="50" viewBox="0 0 50 50" fill="#ed1c24">
  	<path d="M34.000,42.000 L16.000,42.000 C13.239,42.000 11.000,39.761 11.000,37.000 L11.000,13.000 C11.000,10.239 13.239,8.000 16.000,8.000 L34.000,8.000 C36.761,8.000 39.000,10.239 39.000,13.000 L39.000,37.000 C39.000,39.761 36.761,42.000 34.000,42.000 ZM19.500,36.000 L17.000,36.000 L17.000,33.500 C17.000,32.671 16.328,32.000 15.500,32.000 C14.672,32.000 14.000,32.671 14.000,33.500 L14.000,37.500 C14.000,38.328 14.672,39.000 15.500,39.000 L19.500,39.000 C20.328,39.000 21.000,38.328 21.000,37.500 C21.000,36.672 20.328,36.000 19.500,36.000 ZM36.000,12.500 C36.000,11.671 35.328,11.000 34.500,11.000 L30.500,11.000 C29.672,11.000 29.000,11.671 29.000,12.500 C29.000,13.328 29.672,14.000 30.500,14.000 L33.000,14.000 L33.000,16.500 C33.000,17.328 33.672,18.000 34.500,18.000 C35.328,18.000 36.000,17.328 36.000,16.500 L36.000,12.500 Z" class="cls-1"/>
</svg>
