<svg xmlns="http://www.w3.org/2000/svg" xmlns:xlink="http://www.w3.org/1999/xlink" preserveAspectRatio="xMidYMid" width="24" height="25" viewBox="0 0 26 26">
  	<path d="M24.895,15.299 C24.731,15.621 24.405,15.829 24.042,15.842 L18.322,16.045 L14.783,20.601 C14.592,20.846 14.301,20.986 13.995,20.986 C13.945,20.986 13.893,20.982 13.843,20.974 C13.484,20.918 13.185,20.673 13.060,20.335 L11.399,15.799 C11.352,15.890 11.304,15.980 11.228,16.056 L2.662,24.712 C2.472,24.902 2.222,24.998 1.973,24.998 C1.723,24.998 1.474,24.902 1.283,24.712 C0.902,24.331 0.902,23.714 1.283,23.333 L9.814,14.642 C9.863,14.593 9.924,14.569 9.979,14.532 L5.633,12.982 C5.291,12.860 5.043,12.563 4.986,12.207 C4.929,11.851 5.069,11.491 5.355,11.268 L9.912,7.721 L10.084,1.964 C10.096,1.604 10.303,1.277 10.625,1.113 C10.946,0.946 11.333,0.970 11.635,1.173 L16.434,4.390 L21.987,2.776 C22.338,2.674 22.711,2.769 22.968,3.024 C23.226,3.279 23.323,3.652 23.224,4.000 L21.632,9.536 L24.829,14.294 C25.034,14.592 25.059,14.978 24.895,15.299 Z" class="cls-1"/>
</svg>
