<svg xmlns="http://www.w3.org/2000/svg" xmlns:xlink="http://www.w3.org/1999/xlink" preserveAspectRatio="xMidYMid" width="50" height="50" viewBox="0 0 50 50" fill="#ed1c24">
  	<path d="M37.000,42.000 L20.000,42.000 C18.343,42.000 17.000,40.657 17.000,39.000 L17.000,22.000 L24.000,15.000 L37.000,15.000 C38.657,15.000 40.000,16.343 40.000,18.000 L40.000,39.000 C40.000,40.657 38.657,42.000 37.000,42.000 ZM35.000,30.000 C35.000,28.895 34.105,28.000 33.000,28.000 L24.000,28.000 C22.895,28.000 22.000,28.895 22.000,30.000 L22.000,35.000 C22.000,36.105 22.895,37.000 24.000,37.000 L33.000,37.000 C34.105,37.000 35.000,36.105 35.000,35.000 L35.000,30.000 ZM14.000,19.000 L14.000,35.000 L13.000,35.000 C11.343,35.000 10.000,33.657 10.000,32.000 L10.000,15.000 L17.000,8.000 L30.000,8.000 C31.657,8.000 33.000,9.343 33.000,11.000 L33.000,12.000 L21.000,12.000 L14.000,19.000 Z" class="cls-1"/>
</svg>
