<svg xmlns="http://www.w3.org/2000/svg" xmlns:xlink="http://www.w3.org/1999/xlink" preserveAspectRatio="xMidYMid" width="22" height="22" viewBox="0 0 26 26">
  	<path d="M12.989,24.000 C6.914,24.000 1.989,19.075 1.989,13.000 C1.989,6.925 6.914,2.000 12.989,2.000 C19.065,2.000 23.989,6.925 23.989,13.000 C23.989,19.075 19.065,24.000 12.989,24.000 ZM9.511,9.004 C8.684,9.004 8.014,9.674 8.014,10.500 C8.014,11.326 8.684,11.996 9.511,11.996 C10.337,11.996 11.007,11.326 11.007,10.500 C11.007,9.674 10.337,9.004 9.511,9.004 ZM16.511,9.004 C15.684,9.004 15.014,9.674 15.014,10.500 C15.014,11.326 15.684,11.996 16.511,11.996 C17.337,11.996 18.007,11.326 18.007,10.500 C18.007,9.674 17.337,9.004 16.511,9.004 ZM18.600,15.076 C18.263,14.918 17.871,15.078 17.722,15.429 C17.709,15.460 16.348,18.566 12.954,18.608 C12.934,18.608 12.913,18.608 12.892,18.608 C9.699,18.608 8.322,15.554 8.264,15.423 C8.112,15.075 7.720,14.920 7.385,15.078 C7.051,15.236 6.902,15.648 7.053,15.999 C7.124,16.164 8.827,20.001 12.889,20.001 C12.916,20.001 12.943,20.000 12.970,20.000 C17.207,19.948 18.868,16.157 18.937,15.996 C19.087,15.644 18.935,15.233 18.600,15.076 Z" class="cls-1"/>
</svg>
